{"title":"American Pimp (1999) [thePiratePimp]","uid":11848811,"size":734062592,"categoryP":"video","categoryS":"movies","magnet":"?xt=urn:btih:a0bf68c7e1f01c4ee55c594ea7466cef81ad5bfc&amp;dn=American+Pimp+%281999%29+%5BthePiratePimp%5D&amp;tr=udp%3A%2F%2Ftracker.openbittorrent.com%3A80&amp;tr=udp%3A%2F%2Fopen.demonii.com%3A1337&amp;tr=udp%3A%2F%2Ftracker.coppersurfer.tk%3A6969&amp;tr=udp%3A%2F%2Fexodus.desync.com%3A6969","seeders":9,"leechers":1,"uploader":"thepiratepimp","files":1,"time":1430034048,"description":"American Pimp (1999) [thePiratePimp]\n &lt;a href=&quot;\nhttps://yuq.me/users/23/020/c1H3wCFULJ.jpg&quot; rel=&quot;nofollow&quot; target=&quot;_NEW&quot;&gt;\nhttps://yuq.me/users/23/020/c1H3wCFULJ.jpg&lt;/a&gt; &lt;a href=&quot;\nhttps://yuq.me/users/23/020/pE5K4vNjWi.png&quot; rel=&quot;nofollow&quot; target=&quot;_NEW&quot;&gt;\nhttps://yuq.me/users/23/020/pE5K4vNjWi.png&lt;/a&gt;\n\nGeneral\nComplete name : American Pimp (1999) [thePiratePimp].avi\nFormat : AVI\nFormat/Info : Audio Video Interleave\nFile size : 700 MiB\nDuration : 1h 27mn\nOverall bit rate mode : Variable\nOverall bit rate : 1 118 Kbps\nWriting application : VirtualDubMod 1.5.4.1 (build 2178/release)\nWriting library : VirtualDubMod build 2178/release\n\nVideo\nID : 0\nFormat : MPEG-4 Visual\nFormat profile : Advanced Simple@L5\nFormat settings, BVOP : 1\nFormat settings, QPel : No\nFormat settings, GMC : No warppoints\nFormat settings, Matrix : Custom\nCodec ID : XVID\nCodec ID/Hint : XviD\nDuration : 1h 27mn\nBit rate : 993 Kbps\nWidth : 720 pixels\nHeight : 400 pixels\nDisplay aspect ratio : 16:9\nFrame rate : 23.976 fps\nColor space : YUV\nChroma subsampling : 4:2:0\nBit depth : 8 bits\nScan type : Progressive\nCompression mode : Lossy\nBits/(Pixel*Frame) : 0.144\nStream size : 622 MiB (89%)\nWriting library : XviD 1.2.1 (UTC 2008-12-04)\n\nAudio\nID : 1\nFormat : MPEG Audio\nFormat version : Version 1\nFormat profile : Layer 3\nMode : Joint stereo\nMode extension : MS Stereo\nCodec ID : 55\nCodec ID/Hint : MP3\nDuration : 1h 27mn\nBit rate mode : Variable\nBit rate : 112 Kbps\nNominal bit rate : 128 Kbps\nChannel(s) : 2 channels\nSampling rate : 48.0 KHz\nCompression mode : Lossy\nStream size : 70.0 MiB (10%)\nAlignment : Aligned on interleaves\nInterleave, duration : 24 ms (0.58 video frame)\nInterleave, preload duration : 274 ms\nWriting library : LAME3.98r\nEncoding settings : -m j -V 4 -q 2 -lowpass 17 --abr 128\nLanguage : English","torrent":{"xt":"urn:btih:a0bf68c7e1f01c4ee55c594ea7466cef81ad5bfc","amp;dn":"American+Pimp+%281999%29+%5BthePiratePimp%5D","amp;tr":["udp%3A%2F%2Ftracker.openbittorrent.com%3A80","udp%3A%2F%2Fopen.demonii.com%3A1337","udp%3A%2F%2Ftracker.coppersurfer.tk%3A6969","udp%3A%2F%2Fexodus.desync.com%3A6969"],"infoHash":"a0bf68c7e1f01c4ee55c594ea7466cef81ad5bfc","infoHashBuffer":{"type":"Buffer","data":[160,191,104,199,225,240,28,78,229,92,89,78,167,70,108,239,129,173,91,252]},"announce":[],"urlList":[]}}